PathFileType	4	(X/Y/Z)	Patient5_TMGait_0pt45_1_right_10.trc.trc
DataRate	CameraRate	NumFrames	NumMarkers	Units	OrigDataRate	OrigDataStartFrame	OrigNumFrames
58.333333333333	58.333333333333	4	32	mm	58.333333333333	1	       141
Frame#	Time	R.ASIS			L.ASIS			Chest			R.Shoulder			Neck			L.Shoulder			L.Elbow			L.Wrist			R.Elbow			R.Wrist			L.Thigh.Superior			L.Thigh.Lateral			L.Thigh.Inferior			L.Patella			L.Shank.Superior			L.Shank.Lateral			L.Shank.Inferior			L.Heel			L.Midfoot.Lateral			L.Midfoot.Superior			L.Toe			R.Thigh.Superior			R.Thigh.Lateral			R.Thigh.Inferior			R.Patella			R.Shank.Superior			R.Shank.Lateral			R.Shank.Inferior			R.Heel			R.Midfoot.Lateral			R.Midfoot.Superior			R.Toe			
		X1	Y1	Z1	X2	Y2	Z2	X3	Y3	Z3	X4	Y4	Z4	X5	Y5	Z5	X6	Y6	Z6	X7	Y7	Z7	X8	Y8	Z8	X9	Y9	Z9	X10	Y10	Z10	X11	Y11	Z11	X12	Y12	Z12	X13	Y13	Z13	X14	Y14	Z14	X15	Y15	Z15	X16	Y16	Z16	X17	Y17	Z17	X18	Y18	Z18	X19	Y19	Z19	X20	Y20	Z20	X21	Y21	Z21	X22	Y22	Z22	X23	Y23	Z23	X24	Y24	Z24	X25	Y25	Z25	X26	Y26	Z26	X27	Y27	Z27	X28	Y28	Z28	X29	Y29	Z29	X30	Y30	Z30	X31	Y31	Z31	X32	Y32	Z32	

1	16.320000000000	1016.139118458473	1016.050557550879	543.322407747679	1038.685039283842	963.319356837566	308.158366564222	1093.082360693143	1446.877827385915	418.960071849530	962.802414229182	1521.876154965011	557.867435817384	979.728166764923	1570.701003551240	371.488486812528	1080.542138678982	1503.660716557992	215.060498399403	1101.583449184160	1171.013884627835	107.456201490282	1257.821701387851	938.047951693778	178.958950490362	847.642980576864	1209.095885445375	690.458611282977	1073.943162672969	1027.917090614302	668.825340479197	1048.221947563587	739.763778914290	320.391010187953	971.671382348063	671.028730737632	279.964179885094	1034.999001371769	611.727349178302	350.022212976279	1026.276505332786	496.906684384309	363.025043583598	971.208587830568	395.633440615522	384.769224766689	907.091662557372	328.920883014181	306.566149830036	929.389531836825	277.496387841586	398.213464298419	778.969953961673	50.774887252698	399.801681131039	869.776080533920	28.300729220649	342.627876775713	964.986976211765	87.446956886375	391.828060047714	1072.688859307059	44.040227516809	398.702068829051	1087.989563756837	821.152828744555	605.013506147880	1033.166835642828	733.376147154467	666.729895280126	1131.896000496049	698.956749942470	606.664340364813	1162.359536637746	606.218201590671	654.689226119134	1127.731763437122	491.318941658574	624.107130065457	1048.816617797281	426.532661619493	702.447458136795	1111.806601147425	352.071035049755	631.589788532641	996.750453340919	125.830631474416	607.632502294989	1070.654557639923	91.622250817614	684.297026220214	1175.822293312652	161.001337336959	676.938045554561	1279.781000575398	119.370753877718	680.951182657257	
2	16.337142857143	1014.754404814835	1014.849608173955	542.811761800649	1035.515486802767	963.086008139817	307.751882759736	1088.189435541005	1446.818311514065	419.600735311005	958.270254351286	1520.767739126970	559.445731047886	974.104707564589	1570.188615759634	373.133689819334	1074.174960630270	1504.000882502343	215.874057228931	1094.707620491096	1171.164935069846	108.153787783545	1249.504872033303	937.372039611635	180.144239715524	845.092482053380	1207.501407508894	692.602411277762	1072.143397759751	1027.386081485560	670.417017954819	1044.931416295924	739.155082493219	320.746132642248	967.772515119544	670.379953179333	280.212965366879	1030.400603195401	610.467394571303	350.006734367834	1021.485251547532	495.927855537888	363.184768284891	965.891060970453	394.899392918633	385.098863293604	901.158779720550	328.631925039121	306.865379930550	922.782601747458	277.102798970159	398.707399488899	770.849636405723	50.877719381520	399.954657013135	861.634686214783	28.413534199165	342.770478398614	956.802246837466	87.604782726163	391.929851221055	1064.535423168808	44.001584238721	398.715631344223	1088.590005253707	820.431742365830	602.416331274093	1034.781533310565	732.411740739063	665.129445819637	1132.420093639982	698.136064464390	603.501681156986	1163.718339102147	605.448982912951	651.072523886111	1128.663870978423	490.350087100927	621.190603689872	1051.295364067753	425.457146660303	700.589410839197	1113.270516848650	351.131468679085	628.845094388156	998.382954737805	124.623573345705	606.196706747002	1073.369670815569	90.711135611097	681.930925384583	1178.307610476187	160.302664379172	673.060515756378	1282.347635491534	118.960835400113	675.763595297156	
3	16.354285714286	1013.395838263455	1013.646408708290	542.341418825396	1032.404639985210	962.859879798094	307.369187259278	1083.377557898930	1446.764727962403	420.253226673488	953.835763723334	1519.677888777929	561.041472947841	968.554410778342	1569.678567384034	374.789845726755	1067.868838612202	1504.322663900722	216.692823238874	1087.850988738592	1171.309310094326	108.827930387870	1241.190091343519	936.651364022125	181.210953710226	842.631216203869	1205.945262222599	694.777010119036	1070.324349150471	1026.762366975669	671.944866698121	1041.654832912146	738.523467354928	321.039650025124	963.897541708595	669.754919065468	280.464090820750	1025.885571190586	609.278003191710	349.973069539505	1016.722564441834	494.972128376049	363.313202798661	960.570945630756	394.186516734958	385.392685653064	895.261534049186	328.363712901342	307.151680468805	916.258005279209	276.731050071280	399.155783890346	762.824800657940	50.986098095237	400.116946694635	853.584856229350	28.533376859692	342.917621380088	948.721787541149	87.751851186687	392.030167031802	1056.478218721503	43.965618408830	398.726718332764	1089.018226256104	819.578755644845	599.830028990418	1036.153112242826	731.334255036691	663.503996938707	1132.679526319896	697.139701844587	600.322784419667	1164.758997972997	604.513331631877	647.448673774225	1129.361614720708	489.259172532290	618.268491277482	1053.529646306581	424.219196281897	698.711419462771	1114.564778099175	350.048428486966	626.118197969117	1000.008531949932	123.205231138063	604.805694783658	1076.075956058790	89.643882267399	679.630484119240	1180.724266119586	159.513236823394	669.280846512934	1284.872209856437	118.516550490742	670.707686885042	
4	16.371428571429	1012.072824859448	1012.440785249152	541.958187591001	1029.380417189325	962.644699779878	307.038075055152	1078.713965727302	1446.720405390049	420.945115717046	949.587252645919	1518.621422022721	562.691326492639	963.135800917366	1569.173473105942	376.488529700219	1061.668437926487	1504.613694648437	217.538908462870	1080.996839454183	1171.448999512974	109.462382260256	1232.837994438487	935.845222387806	182.037994682463	840.325015440569	1204.458077595756	697.017691099338	1068.461085957019	1025.972063690339	673.349159838017	1038.402993247517	737.873577164112	321.237687395808	960.053809638042	669.177235391500	280.717148421676	1021.515652497629	608.226106437922	349.912524609362	1011.995961129531	494.061696111374	363.384843476031	955.227520977596	393.518967549267	385.623683807303	889.410551721612	328.137825953593	307.411300112630	909.858954327333	276.404693159887	399.524008141410	754.947746707490	51.120067118318	400.292345607959	845.675387448492	28.673432526421	343.071065089626	940.804617073411	87.879149437218	392.127576746669	1048.567294569161	43.933016866733	398.733060291197	1089.092626593676	818.464056449593	597.279392508384	1037.024567279994	730.034042483295	661.848135548868	1132.408193294033	695.813997626699	597.139080684765	1165.158303750905	603.265608999083	643.831313788147	1129.591961547559	487.942481619316	615.337450963493	1055.266713532195	422.672112899219	696.780464787378	1115.519824833876	348.701513105321	623.412468797549	1001.616046397259	121.392115844708	603.438360668243	1078.746644438845	88.279839656725	677.401202668151	1182.995810469307	158.555992727053	665.658480031551	1287.302021875943	118.018226952060	665.884405961750	
